<?xml version="1.0" encoding="utf-8"?>
<?xml-stylesheet type="text/xsl" href="rss1.xsl"?>
<rss version="2.0" xmlns:atom="http://www.w3.org/2005/Atom" xmlns:content="http://purl.org/rss/1.0/modules/content/" xmlns:dc="http://purl.org/dc/elements/1.1/" xmlns:media="http://search.yahoo.com/mrss/">
<channel>
 <title>Getty</title>
 <link>http://www.gettyimg.com/</link>
 <atom:link href="http://www.gettyimg.com/" rel="self" type="application/rss+xml" />

 
                <item>
                <title><![CDATA[【HD Live Performances】WEB-RiP - Miley Cyrus - Flowers &amp; Psycho Killer (Live) - My Next Guest Needs No Introduction With David Letterman S05E03 1080p NF WEB-DL]]></title>
                <link><![CDATA[https://sharemania.us/threads/miley-cyrus-flowers-psycho-killer-live-my-next-guest-needs-no-introduction-with-david-letterman-s05e03-1080p-nf-web-dl.246756/]]></link>
                <description><![CDATA[<article>
<blockquote class="messageText SelectQuoteContainer ugc baseHtml">
<img src="https://i.imgur.com/31xdr2o.jpeg" class="bbCodeImage LbImage" alt="[​IMG]" data-url="https://i.imgur.com/31xdr2o.jpeg" style=""> <br>
<div class="ToggleTriggerAnchor bbCodeSpoilerContainer">
<button type="button" class="button bbCodeSpoilerButton ToggleTrigger Tooltip JsOnly" data-target="> .SpoilerTarget"><span>Spoiler: <span class="SpoilerTitle">MediaInfo</span></span></button>
<div class="SpoilerTarget bbCodeSpoilerText">General<br>
Unique ID : 19097183862887676557048798798413296328 (0xE5DFBDBFCED393BE237F97E7EF7F2C8)<br>
Complete name : E:\Miley Cyrus - Flowers (Live) - My Next Guest Needs No Introduction With David Letterman 1080p NF WEB-DL DDP5.1 H.264-mariellisaa.mkv<br>
Format : Matroska<br>
Format version : Version 4<br>
File size : 261 MiB<br>
Duration : 3 min 51 s<br>
Overall bit rate mode : Constant<br>
Overall bit rate : 9 446 kb/s<br>
Writing application : VideoReDo (Lavf57.71.100)<br>
Writing library : VideoReDo (Lavf57.71.100)<br>
ErrorDetectionType : Per level 1<br>
<br>
Video<br>
ID : 1<br>
Format : AVC<br>
Format/Info : Advanced Video Codec<br>
Format profile : High@L4<br>
Format settings : CABAC / 1 Ref Frames<br>
Format settings, CABAC : Yes<br>
Format settings, Reference frames : 1 frame<br>
Format settings, GOP : M=1, N=24<br>
Codec ID : V_MPEG4/ISO/AVC<br>
Duration : 3 min 51 s<br>
Bit rate mode : Constant<br>
Bit rate : 8 674 kb/s<br>
Width : 1 920 pixels<br>
Height : 1 080 pixels<br>
Display aspect ratio : 16:9<br>
Frame rate mode : Constant<br>
Frame rate : 23.976 (24000/1001) FPS<br>
Color space : YUV<br>
Chroma subsampling : 4:2:0<br>
Bit depth : 8 bits<br>
Scan type : Progressive<br>
Bits/(Pixel*Frame) : 0.174<br>
Stream size : 234 MiB (90%)<br>
Writing library : x264 core 152 r2245<br>
Encoding settings : cabac=1 / ref=1 / deblock=1:0:0 / analyse=0x3:0x113 / me=hex / subme=4 / psy=1 / psy_rd=1.00:0.00 / mixed_ref=0 / me_range=16 / chroma_me=1 / trellis=1 / 8x8dct=1 / cqm=0 / deadzone=21,11 / fast_pskip=1 / chroma_qp_offset=0 / threads=18 / lookahead_threads=4 / sliced_threads=0 / nr=0 / decimate=1 / interlaced=0 / bluray_compat=0 / constrained_intra=0 / bframes=0 / weightp=1 / keyint=24 / keyint_min=2 / scenecut=0 / intra_refresh=0 / rc_lookahead=20 / rc=abr / mbtree=1 / bitrate=8374 / ratetol=1.0 / qcomp=0.60 / qpmin=0 / qpmax=69 / qpstep=4 / vbv_maxrate=8673 / vbv_bufsize=26022 / nal_hrd=none / filler=0 / ip_ratio=1.40 / aq=1:1.00<br>
Default : No<br>
Forced : No<br>
Color range : Limited<br>
Color primaries : BT.709<br>
Transfer characteristics : BT.709<br>
Matrix coefficients : BT.709<br>
<br>
Audio #1<br>
ID : 2<br>
Format : E-AC-3<br>
Format/Info : Enhanced AC-3<br>
Commercial name : Dolby Digital Plus<br>
Codec ID : A_EAC3<br>
Duration : 3 min 51 s<br>
Bit rate mode : Constant<br>
Bit rate : 640 kb/s<br>
Channel(s) : 6 channels<br>
ChannelLayout_Original : L R C LFE Ls Rs<br>
Sampling rate : 48.0 kHz<br>
Frame rate : 31.250 FPS (1536 SPF)<br>
Compression mode : Lossy<br>
Stream size : 17.7 MiB (7%)<br>
Language : English<br>
Service kind : Complete Main<br>
Default : Yes<br>
Forced : No<br>
<br>
Audio #2<br>
ID : 3<br>
Format : E-AC-3<br>
Format/Info : Enhanced AC-3<br>
Commercial name : Dolby Digital Plus<br>
Codec ID : A_EAC3<br>
Duration : 3 min 51 s<br>
Bit rate mode : Constant<br>
Bit rate : 128 kb/s<br>
Channel(s) : 2 channels<br>
Channel layout : L R<br>
Sampling rate : 48.0 kHz<br>
Frame rate : 31.250 FPS (1536 SPF)<br>
Compression mode : Lossy<br>
Stream size : 3.53 MiB (1%)<br>
Language : English<br>
Service kind : Complete Main<br>
Default : No<br>
Forced : No<br>
<br>
Menu<br>
00:00:00.000 : Chapter 0</div>
</div><br>
<div class="bbCodeBlock bbCodeVfcHH HiddenContent">
<div class="attribution type">Hidden Content:</div>
<blockquote>You must either reply or click 'Like' to see the hidden information contained here.</blockquote>
</div><img src="https://i.imgur.com/XXmeN8s.jpeg" class="bbCodeImage LbImage" alt="[​IMG]" data-url="https://i.imgur.com/XXmeN8s.jpeg" style=""><br>
<div class="ToggleTriggerAnchor bbCodeSpoilerContainer">
<button type="button" class="button bbCodeSpoilerButton ToggleTrigger Tooltip JsOnly" data-target="> .SpoilerTarget"><span>Spoiler: <span class="SpoilerTitle">MediaInfo</span></span></button>
<div class="SpoilerTarget bbCodeSpoilerText">General<br>
Unique ID : 108143310538039735165315636164977463058 (0x515BA4DD83A000412670D1831B938F12)<br>
Complete name : E:\Miley Cyrus - Psycho Killer (Live) - My Next Guest Needs No Introduction With David Letterman 1080p NF WEB-DL DDP5.1 H.264-mariellisaa.mkv<br>
Format : Matroska<br>
Format version : Version 4<br>
File size : 266 MiB<br>
Duration : 3 min 56 s<br>
Overall bit rate mode : Constant<br>
Overall bit rate : 9 443 kb/s<br>
Writing application : VideoReDo (Lavf57.71.100)<br>
Writing library : VideoReDo (Lavf57.71.100)<br>
ErrorDetectionType : Per level 1<br>
<br>
Video<br>
ID : 1<br>
Format : AVC<br>
Format/Info : Advanced Video Codec<br>
Format profile : High@L4<br>
Format settings : CABAC / 1 Ref Frames<br>
Format settings, CABAC : Yes<br>
Format settings, Reference frames : 1 frame<br>
Format settings, GOP : M=1, N=24<br>
Codec ID : V_MPEG4/ISO/AVC<br>
Duration : 3 min 55 s<br>
Bit rate mode : Constant<br>
Bit rate : 8 674 kb/s<br>
Width : 1 920 pixels<br>
Height : 1 080 pixels<br>
Display aspect ratio : 16:9<br>
Frame rate mode : Constant<br>
Frame rate : 23.976 (24000/1001) FPS<br>
Color space : YUV<br>
Chroma subsampling : 4:2:0<br>
Bit depth : 8 bits<br>
Scan type : Progressive<br>
Bits/(Pixel*Frame) : 0.174<br>
Stream size : 239 MiB (90%)<br>
Writing library : x264 core 152 r2245<br>
Encoding settings : cabac=1 / ref=1 / deblock=1:0:0 / analyse=0x3:0x113 / me=hex / subme=4 / psy=1 / psy_rd=1.00:0.00 / mixed_ref=0 / me_range=16 / chroma_me=1 / trellis=1 / 8x8dct=1 / cqm=0 / deadzone=21,11 / fast_pskip=1 / chroma_qp_offset=0 / threads=18 / lookahead_threads=4 / sliced_threads=0 / nr=0 / decimate=1 / interlaced=0 / bluray_compat=0 / constrained_intra=0 / bframes=0 / weightp=1 / keyint=24 / keyint_min=2 / scenecut=0 / intra_refresh=0 / rc_lookahead=20 / rc=abr / mbtree=1 / bitrate=8051 / ratetol=1.0 / qcomp=0.60 / qpmin=0 / qpmax=69 / qpstep=4 / vbv_maxrate=8673 / vbv_bufsize=26022 / nal_hrd=none / filler=0 / ip_ratio=1.40 / aq=1:1.00<br>
Default : No<br>
Forced : No<br>
<br>
<br>
Ripped and cut by me<br>
Color range : Limited<br>
Color primaries : BT.709<br>
Transfer characteristics : BT.709<br>
Matrix coefficients : BT.709<br>
<br>
Audio #1<br>
ID : 2<br>
Format : E-AC-3<br>
Format/Info : Enhanced AC-3<br>
Commercial name : Dolby Digital Plus<br>
Codec ID : A_EAC3<br>
Duration : 3 min 55 s<br>
Bit rate mode : Constant<br>
Bit rate : 640 kb/s<br>
Channel(s) : 6 channels<br>
ChannelLayout_Original : L R C LFE Ls Rs<br>
Sampling rate : 48.0 kHz<br>
Frame rate : 31.250 FPS (1536 SPF)<br>
Compression mode : Lossy<br>
Stream size : 18.0 MiB (7%)<br>
Language : English<br>
Service kind : Complete Main<br>
Default : Yes<br>
Forced : No<br>
<br>
Audio #2<br>
ID : 3<br>
Format : E-AC-3<br>
Format/Info : Enhanced AC-3<br>
Commercial name : Dolby Digital Plus<br>
Codec ID : A_EAC3<br>
Duration : 3 min 55 s<br>
Bit rate mode : Constant<br>
Bit rate : 128 kb/s<br>
Channel(s) : 2 channels<br>
Channel layout : L R<br>
Sampling rate : 48.0 kHz<br>
Frame rate : 31.250 FPS (1536 SPF)<br>
Compression mode : Lossy<br>
Stream size : 3.60 MiB (1%)<br>
Language : English<br>
Service kind : Complete Main<br>
Default : No<br>
Forced : No<br>
<br>
Menu<br>
00:00:00.000 : Chapter 0</div>
</div>
<div class="bbCodeBlock bbCodeVfcHH HiddenContent">
<div class="attribution type">Hidden Content:</div>
<blockquote>You must either reply or click 'Like' to see the hidden information contained here.</blockquote>
</div>
<div class="messageTextEndMarker">&nbsp;</div>
</blockquote>
</article>]]></description>
                <author><![CDATA[mariellisaa]]></author>
                </item>

                
                <item>
                <title><![CDATA[【Interviews / TV shows / Others】WEB-DL - Miley Cyrus - My Next Guest Needs No Introduction with David Letterman [NF-1080p]]]></title>
                <link><![CDATA[https://sharemania.us/threads/miley-cyrus-my-next-guest-needs-no-introduction-with-david-letterman-nf-1080p.246757/]]></link>
                <description><![CDATA[<article>
<blockquote class="messageText SelectQuoteContainer ugc baseHtml">
<div style="text-align: center"><b>Miley Cyrus - My Next Guest Needs No Introduction with David Letterman [NF-1080p]</b><br>
<b><br>
<img src="https://i.ibb.co/4pvj2z4/My-Next-Guest-Needs-No-Introduction-With-David-Letterman-Miley-Cyrus-NF-1080p-mp4-thumbs.png" class="bbCodeImage LbImage" alt="[​IMG]" data-url="https://i.ibb.co/4pvj2z4/My-Next-Guest-Needs-No-Introduction-With-David-Letterman-Miley-Cyrus-NF-1080p-mp4-thumbs.png" style=""> <br>
<br>
<span style="font-family: 'Book Antiqua'">Duration: 47 Min | Size: 2,70 gb | Audio: English 5.1, English 2.0 | Subtitles: English, Spanish, Portuguese (BR &amp; PT), Japanese<br>
</span><br>
<span style="font-family: 'Arial'">Download Link:</span><span style="font-family: 'Book Antiqua'">
<div class="bbCodeBlock bbCodeVfcHH HiddenContent">
<div class="attribution type">Hidden Content:</div>
<blockquote>You must either reply or click 'Like' to see the hidden information contained here.</blockquote>
</div></span></b>​</div>
<div class="messageTextEndMarker">&nbsp;</div>
</blockquote>
</article>]]></description>
                <author><![CDATA[medicine]]></author>
                </item>

                
                <item>
                <title><![CDATA[【Interviews / TV shows / Others】WEB-RiP - My Next Guest Needs No Introduction With David Letterman S05E03 Miley Cyrus 1080p NF WEB-DL DDP5.1 H.264-mariellisaa]]></title>
                <link><![CDATA[https://sharemania.us/threads/my-next-guest-needs-no-introduction-with-david-letterman-s05e03-miley-cyrus-1080p-nf-web-dl-ddp5-1-h-264-mariellisaa.246755/]]></link>
                <description><![CDATA[<article>
<blockquote class="messageText SelectQuoteContainer ugc baseHtml">
Thanks
<div class="messageTextEndMarker">&nbsp;</div>
</blockquote>
</article>]]></description>
                <author><![CDATA[mariellisaa]]></author>
                </item>

                </channel></rss>